<svg xmlns="http://www.w3.org/2000/svg" viewBox="0 0 1072.68 265.36"><defs><style>.cls-1{fill:#ebe6dc;}</style></defs><g id="Layer_2" data-name="Layer 2"><g id="Layer_4" data-name="Layer 4"><g id="Reviclades_Logo"><path class="cls-1" d="M139.63,199.76a19.66,19.66,0,0,1-.29,16.84,19.9,19.9,0,0,1-5.88,7.42,20.25,20.25,0,0,1-28.46-3.7l-38.85-50v37.53a20.1,20.1,0,0,1-14.74,19.45l-.11,0a16.82,16.82,0,0,1-5.51.83,19.88,19.88,0,0,1-9.18-2.3A19.67,19.67,0,0,1,26.1,212.62a6.25,6.25,0,0,0,4.35,1.81,6.11,6.11,0,0,0,6.16-6.16V189.66l0,0V78.12a6.11,6.11,0,0,0-6.16-5.8,6.21,6.21,0,0,0-4.35,1.81A19.66,19.66,0,0,1,36.66,61a19.88,19.88,0,0,1,9.18-2.29A20.15,20.15,0,0,1,66,77.63,5,5,0,0,1,66.14,79v51.43a14.71,14.71,0,0,0,29.35-1.45V69.42A29.51,29.51,0,0,0,66,39.94L46,40a20.26,20.26,0,0,1-20.29-20.3A19.88,19.88,0,0,1,28,10.51,19.68,19.68,0,0,1,41.2,0a6.21,6.21,0,0,0-1.81,4.35,6.11,6.11,0,0,0,6.16,6.16l20.47,0a59,59,0,0,1,59,59v73.17a29.4,29.4,0,0,1-20.91,28.23l24.57,31.89a6.11,6.11,0,0,0,8.64,1.12A6.3,6.3,0,0,0,139.63,199.76Z"/><path class="cls-1" d="M254.46,182a6.44,6.44,0,0,0-4.52-1.88,6.6,6.6,0,0,0-6.4,5.15,9.24,9.24,0,0,0-.12,1.76c0,26.63-27.35,41.11-45.88,41.11-26.5,0-46.08-21.85-46.08-46.1V128.71a19.59,19.59,0,0,1,.12-2.64,19.15,19.15,0,0,1-.12-2.63v-2.63a46,46,0,1,1,91.93,0v2.62c0,1.51-.13,2.9-.25,4.28V128a48.54,48.54,0,0,1-1.51,8.42,46.37,46.37,0,0,1-26.25,29.39,16.2,16.2,0,0,1-2.26.88,46.21,46.21,0,0,1-15.71,2.77,19.17,19.17,0,0,1-3.77-.25,43,43,0,0,1-11.43-2.52v23.86a15.34,15.34,0,0,0,30.68,0v-3.4A21,21,0,0,1,229,166.59a22.33,22.33,0,0,1,5-.63A21.48,21.48,0,0,1,254.46,182Zm-72.23-50.31a15.32,15.32,0,1,0,30.63,0V112.51a15.32,15.32,0,1,0-30.63,0Z"/><path class="cls-1" d="M383.67,29a6.33,6.33,0,0,0-3.75-2.91c-3.39-.93-7.08,1-7.61,4.35-7.6,47.85-26.6,137.08-37.38,182.35-2.16,9.1-10.68,15.31-20,15.31a20.76,20.76,0,0,1-20-15.31l-29-107.67a6.15,6.15,0,0,0-7.61-4.36,6.31,6.31,0,0,0-3.75,2.92,20.8,20.8,0,0,1,15-20.23,20.38,20.38,0,0,1,25.07,14.33l.12,0,20.22,75.21S337,57.7,343.47,23.05c0,0,.12.07.12,0,2.67-13.69,14.16-17.3,25.07-14.33a20,20,0,0,1,8.3,4.66A19.74,19.74,0,0,1,383.67,29Z"/><path class="cls-1" d="M421.57,208.26V66a6.11,6.11,0,0,1,6.16-6.16,6.22,6.22,0,0,1,4.35,1.82,19.63,19.63,0,0,0-10.51-13.17,19.88,19.88,0,0,0-9.18-2.3,20.41,20.41,0,0,0-5.56.79,20.41,20.41,0,0,0-5.56-.79,19.88,19.88,0,0,0-9.18,2.3,19.66,19.66,0,0,0-10.51,13.17,6.22,6.22,0,0,1,4.35-1.82A6.11,6.11,0,0,1,392.09,66V208.26a6.11,6.11,0,0,1-6.16,6.16,6.21,6.21,0,0,1-4.35-1.81,20.61,20.61,0,0,0,19.69,15.46,20.4,20.4,0,0,0,5.56-.78,20.4,20.4,0,0,0,5.56.78,19.88,19.88,0,0,0,9.18-2.29,19.66,19.66,0,0,0,10.51-13.17,6.21,6.21,0,0,1-4.35,1.81A6.11,6.11,0,0,1,421.57,208.26Z"/><path class="cls-1" d="M387.92,22.48a17,17,0,1,1,17,17A17,17,0,0,1,387.92,22.48Z"/><path class="cls-1" d="M710.17,212a21.46,21.46,0,0,1-20.47,16.08A21.08,21.08,0,0,1,668.59,207v-9.54a30.65,30.65,0,1,1-61.3,0v-51.5a30.65,30.65,0,1,1,61.29,0v-16.2a37.28,37.28,0,0,0-37.42-37.43,36.32,36.32,0,0,0-16.84,4,46,46,0,0,1,38.94-21.48,43.91,43.91,0,0,1,15.33,2.65,45.74,45.74,0,0,1,30.64,43.33v67.33h0v19.34a6.34,6.34,0,0,0,6.41,6.4A6.5,6.5,0,0,0,710.17,212ZM668.59,160.1a15.32,15.32,0,0,0-30.63,0v23.11a15.32,15.32,0,1,0,30.63,0Z"/><path class="cls-1" d="M821.3,212.6a20.65,20.65,0,0,1-19.69,15.46,20.26,20.26,0,0,1-20.29-20.3v-9a29.48,29.48,0,0,1-59-.17V110.15a29.52,29.52,0,0,1,29.48-29.48,28.89,28.89,0,0,1,20.78,8.7A29.42,29.42,0,0,1,781.32,110V27.6a6.11,6.11,0,0,0-6.16-6.16,6.18,6.18,0,0,0-4.35,1.81,19.61,19.61,0,0,1,10.51-13.16,19.85,19.85,0,0,1,9.18-2.3,20.26,20.26,0,0,1,20.29,20.3V208.25a6.11,6.11,0,0,0,6.17,6.16A6.21,6.21,0,0,0,821.3,212.6Zm-40-88.88a14.74,14.74,0,0,0-29.47.08v61.13a14.74,14.74,0,0,0,29.47.09Z"/><path class="cls-1" d="M934,182a6.41,6.41,0,0,0-4.51-1.88,6.6,6.6,0,0,0-6.41,5.15,10.14,10.14,0,0,0-.12,1.76c0,26.63-27.35,41.11-45.87,41.11-26.51,0-46.09-21.85-46.09-46.1V128.71a19.59,19.59,0,0,1,.12-2.64,19.15,19.15,0,0,1-.12-2.63v-2.63a46,46,0,1,1,91.94,0v2.62c0,1.51-.13,2.9-.26,4.28V128a48.52,48.52,0,0,1-1.5,8.42,46.38,46.38,0,0,1-26.26,29.39,16.2,16.2,0,0,1-2.26.88,46.11,46.11,0,0,1-15.7,2.77,19.12,19.12,0,0,1-3.77-.25,43,43,0,0,1-11.43-2.52v23.86a15.34,15.34,0,1,0,30.67,0v-3.4a21,21,0,0,1,16.08-20.48,22.42,22.42,0,0,1,5-.63A21.48,21.48,0,0,1,934,182Zm-72.23-50.31a15.32,15.32,0,1,0,30.64,0V112.51a15.32,15.32,0,1,0-30.64,0Z"/><path class="cls-1" d="M1003.6,126.48V114.67a15.32,15.32,0,0,0-30.64,0,31.37,31.37,0,0,0,15.61,27.13l15.82,9.18,16.17,9.37c7.81,4.53,13.29,12.58,13.73,21.61a45.85,45.85,0,0,1-27.94,44.65,19.14,19.14,0,0,1-2.26.88,46.25,46.25,0,0,1-15.69,2.76,19.07,19.07,0,0,1-3.77-.25,45.84,45.84,0,0,1-42.18-45.69v-1.75a21,21,0,0,1,16.07-20.47,22.33,22.33,0,0,1,5-.63,20.64,20.64,0,0,1,9.55,2.4A20.41,20.41,0,0,1,984,177.54a6.39,6.39,0,0,0-10.8,3.27v11.8a15.32,15.32,0,0,0,30.64,0,31.32,31.32,0,0,0-15.59-27.09L961,149.69l0,0-4.73-2.74c-7.82-4.53-13.29-12.57-13.73-21.6a45.8,45.8,0,0,1,27.93-44.65,16.59,16.59,0,0,1,2.25-.88A46.11,46.11,0,0,1,988.41,77a19.12,19.12,0,0,1,3.77.25,45.85,45.85,0,0,1,42.17,45.7v1.74a21,21,0,0,1-16.06,20.46,21.86,21.86,0,0,1-5,.63,21.43,21.43,0,0,1-20.47-16.06,6.39,6.39,0,0,0,10.81-3.27Z"/><path class="cls-1" d="M531.77,168.31a20.63,20.63,0,0,0-9.55-2.39,22.33,22.33,0,0,0-5,.62A21,21,0,0,0,501.12,187v3.4a15.32,15.32,0,1,1-30.64,0V65.9a15.32,15.32,0,0,1,30.64,0v3.4A21,21,0,0,0,517.2,89.77a21.77,21.77,0,0,0,5,.63A21.46,21.46,0,0,0,542.7,74.32a6.42,6.42,0,0,1-4.52,1.89,6.6,6.6,0,0,1-6.4-5.15,8.49,8.49,0,0,1-.12-1.76c0-20.66-20-39.06-41.95-40.82a19.53,19.53,0,0,0-3.89-.26,45.89,45.89,0,0,0-16.37,3V27.43h-.12A20.26,20.26,0,0,0,449,7.13a19.88,19.88,0,0,0-9.18,2.3,19.64,19.64,0,0,0-10.51,13.16,6.25,6.25,0,0,1,4.35-1.81,6.11,6.11,0,0,1,6.16,6.16V84.68h0v97.42a45.87,45.87,0,0,0,42.19,45.71,19.17,19.17,0,0,0,3.77.25,20.3,20.3,0,0,0,3.89-.25c22-1.77,41.95-20.15,41.95-40.82a9.29,9.29,0,0,1,.12-1.77,6.6,6.6,0,0,1,6.4-5.14A6.42,6.42,0,0,1,542.7,182,20.46,20.46,0,0,0,531.77,168.31Z"/><path class="cls-1" d="M532.91,244.72h-.12v-9.09c-20.52-.11-279.34-.11-279.34-.11H19.81a6.11,6.11,0,0,1-6.16-6.16A6.25,6.25,0,0,1,15.46,225,19.67,19.67,0,0,0,2.3,235.52,19.88,19.88,0,0,0,0,244.7,20.26,20.26,0,0,0,20.3,265v.12H551.17l-.56-.31A20.24,20.24,0,0,1,532.91,244.72Z"/><path class="cls-1" d="M1070.38,235.64a19.68,19.68,0,0,0-13.17-10.51,6.22,6.22,0,0,1,1.82,4.35,6.11,6.11,0,0,1-6.16,6.16H819.23s-233.59,0-233.59.12V189.64h-.12V27.43h-.12a20.26,20.26,0,0,0-20.29-20.3,19.82,19.82,0,0,0-9.18,2.3,19.61,19.61,0,0,0-10.51,13.16,6.21,6.21,0,0,1,4.34-1.81,6.11,6.11,0,0,1,6.17,6.16V63.17h.12V244.72h.12A20.25,20.25,0,0,0,575.3,265l-.1.27h0l-.05.12.67-.12h476.56v-.12a20.26,20.26,0,0,0,20.3-20.3A19.88,19.88,0,0,0,1070.38,235.64Z"/></g></g></g></svg>